<?xml version="1.0" encoding="UTF-8"?>
<svg width="32px" height="32px" viewBox="0 0 32 32" version="1.1" xmlns="http://www.w3.org/2000/svg">
    <g id="页面-1" stroke="none" stroke-width="1" fill="none" fill-rule="evenodd">
        <g id="图标切图" transform="translate(-215.000000, -320.000000)" fill="currentColor">
            <g id="编组-32" transform="translate(155.000000, 72.000000)">
                <g id="编组备份-25" transform="translate(52.000000, 240.000000)">
                    <g id="编组-8" transform="translate(8.000000, 8.000000)">
                        <path d="M21.144223,15.0635634 L21.200863,15.2532064 C21.7506,16.984483 23.1068858,18.7904106 25.0135924,20.3320395 C23.4801726,23.5208691 20.30375,25.7697715 16.5819879,25.9833466 C18.1296593,22.8896542 19,19.4000065 19,15.7070799 C19,15.3989254 18.9939398,15.0921864 18.9819322,14.7869755 C19.7120881,14.847412 20.4335225,14.9398563 21.144223,15.0635634 Z M17,15.7070799 C17,19.3934683 16.050142,22.8580056 14.3818211,25.8692965 C11.762628,25.4433793 9.48561303,24.0002786 7.96850836,21.9588302 C11.5192004,20.1641403 13.8917146,17.5176124 13.9969186,14.89409 C14.9716523,14.7713913 15.9665123,14.7080811 16.9759638,14.7070917 C16.992142,15.038325 17,15.3717848 17,15.7070799 Z M6.98077446,20.214915 L6.93857345,20.235342 C6.51543436,19.3316 6.22351599,18.3541568 6.08734377,17.3275378 C7.91556592,16.3908036 9.88003009,15.6832645 11.9428776,15.2408347 C11.6101334,16.9376193 9.75223073,18.8335611 6.98077446,20.214915 Z M25.9889964,16.4471801 L25.9846996,16.557907 C25.9516355,17.1591688 25.865456,17.7462771 25.7307737,18.3146193 C24.7429161,17.4285442 23.989076,16.4903045 23.513724,15.6016704 C24.3587638,15.8392972 25.1847014,16.1220757 25.9889964,16.4471801 Z M11.531676,13.2830789 L11.1533978,13.3670656 C9.37159653,13.7765012 7.65970828,14.3690342 6.03859977,15.1237978 C6.15673458,13.7540522 6.5518343,12.4631983 7.16715578,11.3073943 C9.20622455,11.5480995 10.7881984,12.2520631 11.531676,13.2830789 Z M24.9277434,11.4901767 C25.3615026,12.3471616 25.6754972,13.2750518 25.8477153,14.2518354 C24.9033075,13.9095461 23.9335372,13.6209789 22.9419376,13.3891627 C22.9682696,13.096625 23.0488565,12.8276938 23.1862782,12.5896724 C23.481764,12.0778761 24.0323975,11.7221917 24.7618065,11.5303904 Z M16.875027,6.03775511 C19.6694513,6.27999605 22.1349654,7.67152079 23.7964186,9.7371788 C22.7783668,10.0926978 21.964393,10.7060396 21.4542274,11.5896724 C21.1978101,12.0338002 21.0389008,12.5102537 20.9697111,13.0087259 C20.2610419,12.8996169 19.5419629,12.819563 18.8146559,12.7694207 C18.5143999,10.4172118 17.8588705,8.17495362 16.9032927,6.09935521 Z M16.7874361,12.7077978 L17,12.7070799 C15.8553799,12.7070799 14.7280353,12.7810447 13.6224848,12.9244555 C12.8390887,11.1517788 10.9198941,9.97543092 8.41832134,9.47974698 C9.97895253,7.66584637 12.1803197,6.41820881 14.6712747,6.08750135 C15.722813,8.12274294 16.4505807,10.3522234 16.7874361,12.7077978 Z" id="形状结合"></path>
                    </g>
                </g>
            </g>
        </g>
    </g>
</svg>
